<svg width="13" height="14" viewBox="0 0 13 14" fill="none" xmlns="http://www.w3.org/2000/svg">
<path fill-rule="evenodd" clip-rule="evenodd" d="M6.5 12.4808C7.95167 12.4808 9.18125 11.977 10.1887 10.9695C11.1962 9.96201 11.7 8.73243 11.7 7.28076C11.7 5.82909 11.1962 4.59951 10.1887 3.59201C9.18125 2.58451 7.95167 2.08076 6.5 2.08076C5.04833 2.08076 3.81875 2.58451 2.81125 3.59201C1.80375 4.59951 1.3 5.82909 1.3 7.28076C1.3 8.73243 1.80375 9.96201 2.81125 10.9695C3.81875 11.977 5.04833 12.4808 6.5 12.4808ZM8.1165 6.43958C8.72882 6.83322 8.72882 7.7283 8.1165 8.12194L6.41576 9.21527C5.75025 9.6431 4.875 9.16526 4.875 8.3741V6.18743C4.875 5.39626 5.75025 4.91842 6.41576 5.34625L8.1165 6.43958Z" fill="black"/>
<path fill-rule="evenodd" clip-rule="evenodd" d="M3.965 13.2689C4.75583 13.6101 5.60083 13.7808 6.5 13.7808C7.39917 13.7808 8.24417 13.6101 9.035 13.2689C9.82583 12.9276 10.5138 12.4645 11.0988 11.8795C11.6838 11.2945 12.1469 10.6066 12.4881 9.81576C12.8294 9.02493 13 8.17993 13 7.28076C13 6.38159 12.8294 5.53659 12.4881 4.74576C12.1469 3.95493 11.6838 3.26701 11.0988 2.68201C10.5138 2.09701 9.82583 1.63389 9.035 1.29264C8.24417 0.951387 7.39917 0.780762 6.5 0.780762C5.60083 0.780762 4.75583 0.951387 3.965 1.29264C3.17417 1.63389 2.48625 2.09701 1.90125 2.68201C1.31625 3.26701 0.853125 3.95493 0.511875 4.74576C0.170625 5.53659 0 6.38159 0 7.28076C0 8.17993 0.170625 9.02493 0.511875 9.81576C0.853125 10.6066 1.31625 11.2945 1.90125 11.8795C2.48625 12.4645 3.17417 12.9276 3.965 13.2689ZM10.1887 10.9695C9.18125 11.977 7.95167 12.4808 6.5 12.4808C5.04833 12.4808 3.81875 11.977 2.81125 10.9695C1.80375 9.96201 1.3 8.73243 1.3 7.28076C1.3 5.82909 1.80375 4.59951 2.81125 3.59201C3.81875 2.58451 5.04833 2.08076 6.5 2.08076C7.95167 2.08076 9.18125 2.58451 10.1887 3.59201C11.1962 4.59951 11.7 5.82909 11.7 7.28076C11.7 8.73243 11.1962 9.96201 10.1887 10.9695Z" fill="black"/>
<path d="M4.875 8.3741C4.875 9.16526 5.75025 9.6431 6.41576 9.21527L8.1165 8.12194C8.72882 7.7283 8.72882 6.83322 8.1165 6.43958L6.41576 5.34625C5.75025 4.91842 4.875 5.39626 4.875 6.18743V8.3741Z" fill="white"/>
</svg>
